<svg width="16" height="16" viewBox="0 0 16 16" fill="none" xmlns="http://www.w3.org/2000/svg">
<path fill-rule="evenodd" clip-rule="evenodd" d="M15.8536 5.14645C16.0488 5.34171 16.0488 5.65829 15.8536 5.85355L12.8536 8.85355C12.7598 8.94732 12.6326 9 12.5 9C12.3674 9 12.2402 8.94732 12.1464 8.85355L10.6464 7.35355C10.4512 7.15829 10.4512 6.84171 10.6464 6.64645C10.8417 6.45118 11.1583 6.45118 11.3536 6.64645L12.5 7.79289L15.1464 5.14645C15.3417 4.95118 15.6583 4.95118 15.8536 5.14645Z" fill="#65D46E"/>
<path d="M1 14C1 14 0 14 0 13C0 12 1 9 6 9C11 9 12 12 12 13C12 14 11 14 11 14H1Z" fill="#65D46E"/>
<path d="M6 8C7.65685 8 9 6.65685 9 5C9 3.34315 7.65685 2 6 2C4.34315 2 3 3.34315 3 5C3 6.65685 4.34315 8 6 8Z" fill="#65D46E"/>
</svg>
